<svg width="24" height="24" viewBox="0 0 24 24" fill="none" xmlns="http://www.w3.org/2000/svg">
    <path
        d="M22.1484 9.65625H16.1484C16.0453 9.65625 15.9609 9.74062 15.9609 9.84375V10.9688C15.9609 11.0719 16.0453 11.1562 16.1484 11.1562H22.1484C22.2516 11.1562 22.3359 11.0719 22.3359 10.9688V9.84375C22.3359 9.74062 22.2516 9.65625 22.1484 9.65625ZM19.0078 12.8438H16.1484C16.0453 12.8438 15.9609 12.9281 15.9609 13.0312V14.1562C15.9609 14.2594 16.0453 14.3438 16.1484 14.3438H19.0078C19.1109 14.3438 19.1953 14.2594 19.1953 14.1562V13.0312C19.1953 12.9281 19.1109 12.8438 19.0078 12.8438ZM11.1867 7.55859H10.1719C10.0266 7.55859 9.90938 7.67578 9.90938 7.82109V13.6336C9.90938 13.718 9.94922 13.7953 10.0172 13.8445L13.507 16.3898C13.6242 16.4742 13.7883 16.4508 13.8727 16.3336L14.475 15.5109V15.5086C14.5594 15.3914 14.5336 15.2273 14.4164 15.143L11.4469 12.9961V7.82109C11.4492 7.67578 11.3297 7.55859 11.1867 7.55859Z"
        fill="#7E7E7E" />
    <path
        d="M18.8625 15.7945H17.5078C17.3766 15.7945 17.2523 15.8625 17.182 15.975C16.8844 16.4461 16.5375 16.882 16.1391 17.2805C15.4523 17.9672 14.6531 18.5063 13.7648 18.8813C12.8437 19.2703 11.8664 19.4672 10.8586 19.4672C9.84844 19.4672 8.87109 19.2703 7.95234 18.8813C7.06406 18.5063 6.26484 17.9672 5.57813 17.2805C4.89141 16.5938 4.35234 15.7945 3.97734 14.9063C3.58828 13.9875 3.39141 13.0102 3.39141 12C3.39141 10.9898 3.58828 10.0148 3.97734 9.09375C4.35234 8.20547 4.89141 7.40625 5.57813 6.71954C6.26484 6.03282 7.06406 5.49375 7.95234 5.11875C8.87109 4.72969 9.85078 4.53282 10.8586 4.53282C11.8687 4.53282 12.8461 4.72969 13.7648 5.11875C14.6531 5.49375 15.4523 6.03282 16.1391 6.71954C16.5375 7.11797 16.8844 7.55391 17.182 8.025C17.2523 8.1375 17.3766 8.20547 17.5078 8.20547H18.8625C19.0242 8.20547 19.1273 8.03672 19.0547 7.89375C17.5266 4.85391 14.4281 2.87813 10.9688 2.83829C5.90391 2.775 1.69688 6.9211 1.6875 11.9813C1.67813 17.0508 5.78672 21.1641 10.8562 21.1641C14.3602 21.1641 17.5102 19.1813 19.0547 16.1063C19.1273 15.9633 19.0219 15.7945 18.8625 15.7945Z"
        fill="#7E7E7E" />
</svg>