<svg width="25" height="24" viewBox="0 0 25 24" fill="none" xmlns="http://www.w3.org/2000/svg">
    <path
        d="M5.81835 9.75072C5.81459 8.86073 5.98729 7.97884 6.32646 7.15605C6.66562 6.33326 7.16453 5.5859 7.79432 4.95721C8.4241 4.32853 9.17226 3.83099 9.99552 3.49339C10.8188 3.15578 11.7008 2.98481 12.5905 2.99037C13.4803 2.99592 14.3601 3.17788 15.1791 3.52574C15.998 3.87359 16.7399 4.38043 17.3618 5.01693C17.9837 5.65342 18.4733 6.40695 18.8022 7.23391C19.131 8.06087 19.2927 8.94485 19.2778 9.83472V10.5017C19.1545 12.7057 19.6102 14.9035 20.5995 16.8767C20.6652 16.9906 20.6999 17.1198 20.7 17.2513C20.7 17.3829 20.6655 17.5121 20.5999 17.6261C20.5343 17.74 20.4398 17.8347 20.326 17.9007C20.2123 17.9666 20.0832 18.0014 19.9517 18.0017H5.14353C5.01212 18.0013 4.88314 17.9663 4.76951 17.9003C4.65587 17.8343 4.56158 17.7396 4.49606 17.6256C4.43055 17.5117 4.39613 17.3825 4.39624 17.2511C4.39635 17.1196 4.43099 16.9905 4.4967 16.8767C5.48603 14.9035 5.94169 12.7057 5.81835 10.5017V9.75072Z"
        stroke="#7E7E7E" stroke-width="2" stroke-linecap="round" stroke-linejoin="round" />
    <path
        d="M9.54822 18V18.75C9.54822 19.5456 9.8642 20.3087 10.4267 20.8713C10.9891 21.4339 11.752 21.75 12.5474 21.75C13.3429 21.75 14.1057 21.4339 14.6682 20.8713C15.2307 20.3087 15.5467 19.5456 15.5467 18.75V18"
        stroke="#7E7E7E" stroke-width="2" stroke-linecap="round" stroke-linejoin="round" />
</svg>