<svg width="25" height="24" viewBox="0 0 25 24" fill="none" xmlns="http://www.w3.org/2000/svg">
    <path
        d="M12.5602 21C17.5294 21 21.5578 16.9706 21.5578 12C21.5578 7.02944 17.5294 3 12.5602 3C7.59089 3 3.5625 7.02944 3.5625 12C3.5625 16.9706 7.59089 21 12.5602 21Z"
        stroke="#7E7E7E" stroke-width="2" stroke-linecap="round" stroke-linejoin="round" />
    <path
        d="M12.5604 18C13.1817 18 13.6854 17.4963 13.6854 16.875C13.6854 16.2537 13.1817 15.75 12.5604 15.75C11.9391 15.75 11.4354 16.2537 11.4354 16.875C11.4354 17.4963 11.9391 18 12.5604 18Z"
        fill="#7E7E7E" />
    <path
        d="M12.5601 13.5V12.75C13.0791 12.75 13.5865 12.5961 14.0181 12.3076C14.4497 12.0192 14.786 11.6092 14.9847 11.1295C15.1833 10.6499 15.2353 10.1221 15.134 9.61289C15.0327 9.10369 14.7828 8.63596 14.4158 8.26885C14.0488 7.90173 13.5812 7.65173 13.0721 7.55044C12.563 7.44915 12.0354 7.50114 11.5558 7.69982C11.0763 7.8985 10.6664 8.23495 10.3781 8.66663C10.0897 9.09831 9.93579 9.60583 9.93579 10.125"
        stroke="#7E7E7E" stroke-width="2" stroke-linecap="round" stroke-linejoin="round" />
</svg>