<svg width="18" height="21" viewBox="0 0 18 21" fill="none" xmlns="http://www.w3.org/2000/svg">
    <path
        d="M15.2711 14.73L15.3 14.7007V14.6596V2.79999C15.3 2.13695 15.0366 1.50107 14.5678 1.03223C14.0989 0.563386 13.463 0.299994 12.8 0.299994H3.2C2.53696 0.299994 1.90108 0.563386 1.43224 1.03223C0.963395 1.50107 0.700003 2.13695 0.700003 2.79999V17.2C0.700003 17.863 0.963395 18.4989 1.43224 18.9678C1.90108 19.4366 2.53696 19.7 3.2 19.7H9.044H9.28202L9.11542 19.53L8.58622 18.99L8.58595 18.9897C8.40596 18.8075 8.27678 18.5934 8.19624 18.3665L8.17262 18.3H8.102H3.2C2.90826 18.3 2.62848 18.1841 2.42219 17.9778C2.2159 17.7715 2.1 17.4917 2.1 17.2V2.79999C2.1 2.50826 2.2159 2.22847 2.42219 2.02218C2.62848 1.81589 2.90826 1.69999 3.2 1.69999H12.8C13.0917 1.69999 13.3715 1.81589 13.5778 2.02218C13.7841 2.22847 13.9 2.50826 13.9 2.79999V15.8716V16.1147L14.0711 15.942L15.2711 14.73ZM17.4971 15.8928L17.4982 15.8916C17.6252 15.7591 17.6952 15.5819 17.6928 15.3983C17.6905 15.2147 17.6161 15.0394 17.4858 14.9101C17.3554 14.7808 17.1794 14.7079 16.9958 14.7072C16.8122 14.7064 16.6356 14.7778 16.5042 14.906L16.5029 14.9072L12.2028 19.2511L10.3008 17.311C10.3006 17.3108 10.3005 17.3107 10.3003 17.3105C10.2364 17.2436 10.1599 17.19 10.0752 17.1528C9.9902 17.1156 9.89868 17.0956 9.80593 17.094C9.71318 17.0924 9.62104 17.1093 9.53486 17.1436C9.44869 17.1779 9.3702 17.2291 9.30395 17.294C9.23771 17.359 9.18504 17.4364 9.149 17.5219C9.11295 17.6074 9.09426 17.6992 9.09401 17.7919C9.09375 17.8847 9.11193 17.9766 9.14751 18.0623C9.18298 18.1477 9.23504 18.2253 9.30067 18.2905C9.30085 18.2907 9.30102 18.2908 9.3012 18.291L11.615 20.6516C11.6911 20.7293 11.7819 20.791 11.8821 20.8332C11.9823 20.8755 12.0899 20.8973 12.1987 20.8976C12.3074 20.8978 12.4151 20.8765 12.5155 20.8347C12.6159 20.7929 12.707 20.7316 12.7835 20.6543L17.4971 15.8928ZM5.31924 5.51923C5.56304 5.27543 5.7 4.94478 5.7 4.59999C5.7 4.25521 5.56304 3.92455 5.31924 3.68076C5.07544 3.43696 4.74478 3.29999 4.4 3.29999C4.05522 3.29999 3.72456 3.43696 3.48076 3.68076C3.23697 3.92455 3.1 4.25521 3.1 4.59999C3.1 4.94478 3.23697 5.27543 3.48076 5.51923C3.72456 5.76303 4.05522 5.89999 4.4 5.89999C4.74478 5.89999 5.07544 5.76303 5.31924 5.51923ZM7.4 3.89999C7.21435 3.89999 7.0363 3.97374 6.90503 4.10502C6.77375 4.23629 6.7 4.41434 6.7 4.59999C6.7 4.78565 6.77375 4.96369 6.90503 5.09497C7.0363 5.22624 7.21435 5.29999 7.4 5.29999H12.2C12.3857 5.29999 12.5637 5.22624 12.695 5.09497C12.8263 4.96369 12.9 4.78564 12.9 4.59999C12.9 4.41434 12.8263 4.23629 12.695 4.10502C12.5637 3.97374 12.3857 3.89999 12.2 3.89999H7.4ZM7.4 8.69999C7.21435 8.69999 7.0363 8.77374 6.90503 8.90502C6.77375 9.03629 6.7 9.21434 6.7 9.39999C6.7 9.58564 6.77375 9.76369 6.90503 9.89497C7.0363 10.0262 7.21435 10.1 7.4 10.1H12.2C12.3857 10.1 12.5637 10.0262 12.695 9.89497C12.8263 9.76369 12.9 9.58564 12.9 9.39999C12.9 9.21434 12.8263 9.03629 12.695 8.90502C12.5637 8.77374 12.3857 8.69999 12.2 8.69999H7.4ZM6.90503 13.705C6.77375 13.8363 6.7 14.0143 6.7 14.2C6.7 14.3856 6.77375 14.5637 6.90503 14.695C7.0363 14.8262 7.21435 14.9 7.4 14.9H12.2C12.3857 14.9 12.5637 14.8262 12.695 14.695C12.8263 14.5637 12.9 14.3856 12.9 14.2C12.9 14.0143 12.8263 13.8363 12.695 13.705C12.5637 13.5737 12.3857 13.5 12.2 13.5H7.4C7.21435 13.5 7.0363 13.5737 6.90503 13.705ZM4.4 10.7C4.74478 10.7 5.07544 10.563 5.31924 10.3192C5.56304 10.0754 5.7 9.74477 5.7 9.39999C5.7 9.05521 5.56304 8.72455 5.31924 8.48075C5.07544 8.23696 4.74478 8.09999 4.4 8.09999C4.05522 8.09999 3.72456 8.23696 3.48076 8.48075C3.23697 8.72455 3.1 9.05521 3.1 9.39999C3.1 9.74477 3.23697 10.0754 3.48076 10.3192C3.72456 10.563 4.05522 10.7 4.4 10.7ZM4.4 15.5C4.74478 15.5 5.07544 15.363 5.31924 15.1192C5.56304 14.8754 5.7 14.5448 5.7 14.2C5.7 13.8552 5.56304 13.5246 5.31924 13.2808C5.07544 13.037 4.74478 12.9 4.4 12.9C4.05522 12.9 3.72456 13.037 3.48076 13.2808C3.23697 13.5246 3.1 13.8552 3.1 14.2C3.1 14.5448 3.23697 14.8754 3.48076 15.1192C3.72456 15.363 4.05522 15.5 4.4 15.5Z"
        fill="#04095A" stroke="#04095A" stroke-width="0.2" />
</svg>